<svg width='36px' height='36px' viewBox= "7 3 36 36">
  <path d= "M 26.84 20.417 L 20 27.204 l -6.84 -6.787 A 3.67 3.67 0 0 1 12 17.739 C 12 15.677 13.71 14 15.815 14 a 3.82 3.82 0 0 1 2.754 1.159 l 1.43 1.467 l 1.433 -1.467 A 3.818 3.818 0 0 1 24.186 14 C 26.289 14 28 15.677 28 17.739 a 3.673 3.673 0 0 1 -1.16 2.678 M 19.986 30 l 0.014 -0.014 l 0.014 0.014 l 8.223 -8.116 l -0.018 -0.019 a 5.678 5.678 0 0 0 1.78 -4.126 C 30 14.569 27.398 12 24.187 12 A 5.829 5.829 0 0 0 20 13.762 A 5.827 5.827 0 0 0 15.815 12 C 12.604 12 10 14.569 10 17.739 a 5.68 5.68 0 0 0 1.782 4.126"
    fill= "rgb(0, 109, 183)" />
</svg>
