<svg width="15px" height="15px" viewBox= "0 0 50 49">
  <path d= "M 49.9 18.1 C 49.3 16.2 47.1 15.9 47.1 15.9 L 34 13.9 L 28 2 C 28 2 27 0 25 0 C 23 0 22 2 22 2 L 16.1 13.9 L 3 15.9 C 3 15.9 0.8 16.2 0.2 18.1 C -0.4 20 1.2 21.6 1.2 21.6 L 10.8 31 L 8.3 44 C 8.3 44 7.9 46.2 9.5 47.4 C 11.1 48.6 13.1 47.6 13.1 47.6 L 25 41.8 L 37.1 47.7 C 37.1 47.7 39.1 48.7 40.7 47.5 C 42.3 46.3 41.9 44.1 41.9 44.1 L 39.4 31.1 L 49 21.7 C 48.9 21.6 50.5 20 49.9 18.1 Z"
    style="fill:rgb(255, 213, 0)" />
</svg>
